
<svg version="1.1" id="图层_1" xmlns="http://www.w3.org/2000/svg" xmlns:xlink="http://www.w3.org/1999/xlink" x="0px" y="0px"
	 width="2757px" height="650px" viewBox="0 0 2757 650" enable-background="new 0 0 2757 650" xml:space="preserve">
<g transform="translate(50 30)">
	<g transform="translate(666 149)">
		<polygon fill="#77787B" points="177.562,116.989 64.742,116.989 64.742,4.473 -8.644,4.473 -8.644,291.769 64.742,291.769 
			64.742,182.531 177.562,182.531 177.562,291.769 250.949,291.769 250.949,4.473 177.562,4.473 		"/>
		<polygon fill="#77787B" points="698.312,4.473 923.019,4.473 923.019,68.924 768.462,68.924 768.462,118.08 906.576,118.08 
			906.576,182.531 768.462,182.531 768.462,291.769 698.312,291.769 		"/>
		<path fill="#77787B" d="M1135.551,64.98c37.247,1.112,58.062,30.038,65.73,51.175h3.286h71.207h3.287
			c-7.67-45.612-54.776-116.813-142.416-116.813h-1.095h-1.095c-90.927,0-146.796,76.763-146.796,151.301
			c0,78.988,59.154,152.413,146.795,152.413h1.095c1.095,0,1.095,0,2.191,0c67.921,0,124.886-45.611,141.318-115.7h-3.286h-71.207
			h-3.286c-4.382,10.012-21.91,48.951-65.73,48.951c-46.011-1.112-73.398-43.389-73.398-86.777
			C1062.153,109.48,1088.445,66.093,1135.551,64.98 M1634.078,150.643c0,81.212-61.701,152.413-148.743,152.413h-1.1h-1.103
			c-88.143,0-147.639-73.425-147.639-147.962c0-18.913,2.203-41.162,11.017-62.3c14.324-37.826,58.396-93.451,136.622-93.451h1.103
			c1.1,0,1.1,0,2.202,0C1572.377-0.658,1634.078,69.431,1634.078,150.643 M1486.439,237.418
			c49.581-1.111,73.819-48.95,73.819-85.663c0-37.824-24.238-85.663-73.819-86.775c-48.479,1.112-76.023,44.5-76.023,85.663
			C1409.314,195.144,1437.96,236.307,1486.439,237.418 M532.509,4.473V155.65c0,10.956,0,23.006-2.191,36.151
			c-2.19,12.051-8.763,24.101-20.811,31.769c-7.667,5.478-18.62,7.669-31.765,7.669c-26.288,0-42.718-13.146-49.29-29.579
			c-6.571-16.431-7.667-33.961-7.667-46.011V4.473h-73.385V153.46c0,26.292,1.094,44.914,6.57,61.347
			c5.477,15.336,13.146,29.579,27.384,44.914c27.384,29.579,72.292,36.152,97.484,36.152c42.718,0,73.387-14.24,95.294-37.246
			c21.906-21.911,32.86-46.01,32.86-105.167V4.473H532.509z M1881.203,194.547c11.035-4.37,19.863-9.831,27.588-17.478
			c18.759-15.293,30.897-45.88,30.897-75.375s-11.035-57.896-34.209-76.467c-15.45-13.108-35.312-20.755-88.28-20.755h-109.245
			v287.296h70.624v-90.667h34.209l55.175,90.667h73.935L1881.203,194.547z M1778.578,68.923h41.932c15.449,0,48.554,0,48.554,33.864
			c0,34.956-32,34.956-46.347,34.956h-44.141V68.923H1778.578z"/>
	</g>
	<path fill="#D71920" d="M226.924-4.541L-26,95.658v401.898l252.924,100.199l252.924-100.199V95.658L226.924-4.541z
		 M421.565,457.917l-136.358,53.955V337.899l-58.282-23.123l-58.284,23.123v173.973L32.282,457.917V135.298l136.358-53.954v173.973
		l58.283,23.122l58.282-23.123V81.345l136.358,53.954V457.917z"/>
	<polygon fill="#9E0B0F" points="-26,95.658 -26,497.557 226.411,597.756 226.411,314.776 168.246,337.899 168.246,511.872 
		32.164,457.917 32.164,135.298 168.246,81.345 168.246,255.317 226.411,278.439 226.411,-4.541 	"/>
	<polygon fill="#FFFFFF" points="423.414,457.563 286.119,511.567 286.119,337.426 227.437,314.282 168.754,337.426 
		168.754,511.567 31.46,457.563 31.46,134.628 168.754,80.623 168.754,254.764 227.437,277.909 286.119,254.764 286.119,80.623 
		423.414,134.628 	"/>
</g>
</svg>
